<svg width="36" height="36" viewBox="0 0 36 36" fill="none" xmlns="http://www.w3.org/2000/svg">
<rect x="11.25" y="10.25" width="13.5" height="15.5" stroke="black" stroke-width="0.5"/>
<rect x="9.25" y="12.25" width="17.5" height="11.5" stroke="black" stroke-width="0.5"/>
<rect x="7.35355" y="17.8995" width="15.5" height="15.5" transform="rotate(-45 7.35355 17.8995)" fill="white" stroke="black" stroke-width="0.5"/>
<rect x="5.25" y="14.25" width="25.5" height="7.5" rx="1.75" fill="white" stroke="black" stroke-width="0.5"/>
<path d="M19.9141 20H18.6372V19.9146C18.7609 19.9146 18.8529 19.9032 18.9131 19.8804C18.9749 19.8576 19.0156 19.8153 19.0352 19.7534C19.0547 19.6899 19.0645 19.598 19.0645 19.4775V17.4805L17.9048 20H17.834L16.6768 17.4805V19.4775C16.6768 19.5996 16.6865 19.6924 16.7061 19.7559C16.7256 19.8177 16.7655 19.86 16.8257 19.8828C16.8859 19.904 16.9779 19.9146 17.1016 19.9146V20H16.064V19.9146C16.1893 19.9146 16.2812 19.9032 16.3398 19.8804C16.4001 19.8576 16.4391 19.8153 16.457 19.7534C16.4749 19.6899 16.4839 19.598 16.4839 19.4775V17.522C16.4839 17.3608 16.4554 17.2477 16.3984 17.1826C16.3431 17.1175 16.2316 17.085 16.064 17.085V17.0068H16.9087L17.9951 19.3457L19.0645 17.0068H19.9141V17.085C19.7887 17.085 19.6951 17.0964 19.6333 17.1191C19.5731 17.1419 19.534 17.1851 19.5161 17.2485C19.4982 17.3104 19.4893 17.4015 19.4893 17.522V19.4775C19.4893 19.5996 19.499 19.6924 19.5186 19.7559C19.5381 19.8177 19.578 19.86 19.6382 19.8828C19.6984 19.904 19.7904 19.9146 19.9141 19.9146V20Z" fill="black"/>
</svg>
