<svg width="100" height="46" viewBox="0 0 100 46" fill="none" xmlns="http://www.w3.org/2000/svg">
<rect x="23.5" y="12.5" width="53" height="21" stroke="black"/>
<rect x="27.5" y="8.5" width="45" height="29" stroke="black"/>
<rect x="50.2131" y="2.70711" width="29" height="29" transform="rotate(45 50.2131 2.70711)" fill="white" stroke="black"/>
<rect x="5.5" y="15.5" width="89" height="15" rx="3.5" fill="white" stroke="black"/>
<path d="M41.4707 27H38.4062V26.7949C38.7031 26.7949 38.9238 26.7676 39.0684 26.7129C39.2168 26.6582 39.3145 26.5566 39.3613 26.4082C39.4082 26.2559 39.4316 26.0352 39.4316 25.7461V20.9531L36.6484 27H36.4785L33.7012 20.9531V25.7461C33.7012 26.0391 33.7246 26.2617 33.7715 26.4141C33.8184 26.5625 33.9141 26.6641 34.0586 26.7188C34.2031 26.7695 34.4238 26.7949 34.7207 26.7949V27H32.2305V26.7949C32.5312 26.7949 32.752 26.7676 32.8926 26.7129C33.0371 26.6582 33.1309 26.5566 33.1738 26.4082C33.2168 26.2559 33.2383 26.0352 33.2383 25.7461V21.0527C33.2383 20.666 33.1699 20.3945 33.0332 20.2383C32.9004 20.082 32.6328 20.0039 32.2305 20.0039V19.8164H34.2578L36.8652 25.4297L39.4316 19.8164H41.4707V20.0039C41.1699 20.0039 40.9453 20.0312 40.7969 20.0859C40.6523 20.1406 40.5586 20.2441 40.5156 20.3965C40.4727 20.5449 40.4512 20.7637 40.4512 21.0527V25.7461C40.4512 26.0391 40.4746 26.2617 40.5215 26.4141C40.5684 26.5625 40.6641 26.6641 40.8086 26.7188C40.9531 26.7695 41.1738 26.7949 41.4707 26.7949V27ZM44.8809 24.9668H42.1387V24.1699H44.8809V24.9668ZM52.0234 25.2012L52.1875 25.3125C51.8672 25.8945 51.4609 26.3516 50.9688 26.6836C50.4805 27.0117 49.8984 27.1758 49.2227 27.1758C48.5117 27.1758 47.8926 27.0156 47.3652 26.6953C46.8418 26.3711 46.4355 25.9336 46.1465 25.3828C45.8613 24.8281 45.7188 24.2051 45.7188 23.5137C45.7188 22.8027 45.8711 22.1562 46.1758 21.5742C46.4844 20.9883 46.9121 20.5234 47.459 20.1797C48.0059 19.832 48.6445 19.6582 49.375 19.6582C49.7461 19.6582 50.0684 19.7051 50.3418 19.7988C50.6191 19.8926 50.918 20.0078 51.2383 20.1445C51.3828 20.1445 51.4863 20.0879 51.5488 19.9746C51.6113 19.8613 51.6562 19.7559 51.6836 19.6582H51.8711L52.0234 22.0898H51.8711C51.6914 21.4922 51.4102 21 51.0273 20.6133C50.6484 20.2266 50.1289 20.0332 49.4688 20.0332C48.9766 20.0332 48.5664 20.1367 48.2383 20.3438C47.9141 20.5508 47.6543 20.8262 47.459 21.1699C47.2676 21.5098 47.1309 21.8848 47.0488 22.2949C46.9668 22.7051 46.9258 23.1152 46.9258 23.5254C46.9258 24.0957 47.0176 24.623 47.2012 25.1074C47.3887 25.5879 47.6797 25.9727 48.0742 26.2617C48.4727 26.5508 48.9883 26.6953 49.6211 26.6953C50.0195 26.6953 50.3574 26.6348 50.6348 26.5137C50.9121 26.3926 51.1582 26.2207 51.373 25.998C51.5918 25.7715 51.8086 25.5059 52.0234 25.2012ZM56.2715 22.5938C56.2715 22.7227 56.2227 22.8379 56.125 22.9395C56.0312 23.0371 55.918 23.0859 55.7852 23.0859C55.668 23.0859 55.5684 23.0547 55.4863 22.9922C55.4043 22.9297 55.3281 22.8672 55.2578 22.8047C55.1914 22.7422 55.1172 22.7109 55.0352 22.7109C54.9336 22.7109 54.8184 22.791 54.6895 22.9512C54.5645 23.1074 54.4453 23.2988 54.332 23.5254V25.875C54.332 26.1836 54.3906 26.4141 54.5078 26.5664C54.625 26.7188 54.8496 26.7949 55.1816 26.7949V27H52.6738V26.7949C52.916 26.7949 53.0898 26.7676 53.1953 26.7129C53.3047 26.6582 53.373 26.5664 53.4004 26.4375C53.4277 26.3086 53.4414 26.1309 53.4414 25.9043V23.8066C53.4414 23.4707 53.4199 23.2051 53.377 23.0098C53.334 22.8105 53.209 22.7109 53.002 22.7109C52.9043 22.7109 52.7949 22.7344 52.6738 22.7812L52.6152 22.5938L54.1152 22.002H54.332V23.0977C54.4141 22.9492 54.5156 22.791 54.6367 22.623C54.7578 22.4512 54.8984 22.3047 55.0586 22.1836C55.2188 22.0625 55.3945 22.002 55.5859 22.002C55.7578 22.002 55.9141 22.0547 56.0547 22.1602C56.1992 22.2617 56.2715 22.4062 56.2715 22.5938ZM60.6367 25.1133L60.7949 25.2305C60.748 25.5625 60.6348 25.877 60.4551 26.1738C60.2754 26.4668 60.0449 26.7051 59.7637 26.8887C59.4824 27.0723 59.1641 27.1641 58.8086 27.1641C58.3438 27.1641 57.9531 27.041 57.6367 26.7949C57.3242 26.5449 57.0879 26.2266 56.9277 25.8398C56.7676 25.4492 56.6875 25.043 56.6875 24.6211C56.6875 24.1562 56.7695 23.7246 56.9336 23.3262C57.0977 22.9277 57.3457 22.6074 57.6777 22.3652C58.0098 22.123 58.4297 22.002 58.9375 22.002C59.5234 22.002 59.9785 22.1895 60.3027 22.5645C60.6309 22.9355 60.7949 23.4062 60.7949 23.9766H57.4434C57.4434 24.3242 57.5059 24.6777 57.6309 25.0371C57.7559 25.3926 57.9492 25.6895 58.2109 25.9277C58.4727 26.166 58.8066 26.2852 59.2129 26.2852C59.584 26.2852 59.8809 26.1738 60.1035 25.9512C60.3301 25.7246 60.5078 25.4453 60.6367 25.1133ZM57.4434 23.6719H59.6875C59.6875 23.457 59.6504 23.252 59.5762 23.0566C59.5059 22.8574 59.3926 22.6953 59.2363 22.5703C59.084 22.4453 58.8848 22.3828 58.6387 22.3828C58.2754 22.3828 57.9922 22.5156 57.7891 22.7812C57.5859 23.0469 57.4707 23.3438 57.4434 23.6719ZM68.8633 22.1484V22.3477C68.6953 22.3711 68.5547 22.4395 68.4414 22.5527C68.3281 22.6621 68.2402 22.7969 68.1777 22.957L66.5605 27.1641H66.3438L65.1191 24.0469L63.7246 27.1641H63.5195L61.9551 23.0684C61.8691 22.8418 61.7812 22.6758 61.6914 22.5703C61.6016 22.4648 61.4297 22.3906 61.1758 22.3477V22.1484H63.2207V22.3477C63.1035 22.3477 63 22.3672 62.9102 22.4062C62.8203 22.4453 62.7754 22.5371 62.7754 22.6816C62.7754 22.8105 62.7988 22.9395 62.8457 23.0684L63.8945 25.8633L64.9375 23.5898C64.8555 23.3672 64.7852 23.1641 64.7266 22.9805C64.668 22.793 64.5801 22.6426 64.4629 22.5293C64.3457 22.4121 64.1562 22.3516 63.8945 22.3477V22.1484H66.2148V22.3477C66.0586 22.3555 65.9082 22.3789 65.7637 22.418C65.623 22.457 65.5527 22.5742 65.5527 22.7695C65.5527 22.8164 65.5859 22.9355 65.6523 23.127C65.7227 23.3184 65.8105 23.5469 65.916 23.8125C66.0215 24.0742 66.1289 24.3398 66.2383 24.6094C66.3516 24.875 66.4512 25.1133 66.5371 25.3242C66.627 25.5312 66.6875 25.6719 66.7188 25.7461L67.7266 23.0684C67.7578 22.9941 67.7832 22.9199 67.8027 22.8457C67.8262 22.7676 67.8379 22.6875 67.8379 22.6055C67.8379 22.4844 67.7754 22.4121 67.6504 22.3887C67.5254 22.3613 67.418 22.3477 67.3281 22.3477V22.1484H68.8633Z" fill="black"/>
</svg>
